# xmcd
#
# Track frame offsets: 
#        150
#        19425
#        36643
#        50062
#        62100
#        75414
#        86199
#        98866
#        120208
#        135988
#        146753
#        160993
#        173249
#        186201
#
# Disc length: 2652 seconds
#
# Revision: 0
# Processed by: cddbd v1.5.1PL0 Copyright (c) Steve Scherf et al.
# Submitted via: ExactAudioCopy v0.95b2
#
DISCID=c30a5a0e
DTITLE=Ray Charles - O melhor de Ray Charles
DYEAR=1900
DGENRE=Blues
TTITLE0=I can't stop loving you
TTITLE1=For all we know
TTITLE2=I like to heart it sometime
TTITLE3=How long blues
TTITLE4=Baby, won't you please come home
TTITLE5=Now she's gone
TTITLE6=Honey honey
TTITLE7=Every time we say goodbye
TTITLE8=You and I
TTITLE9=Ain't that fine
TTITLE10=I'm going down to the river
TTITLE11=Can't you see, darling
TTITLE12=Doing down slow
TTITLE13=Don't put your dreams in one basket
EXTD=Released by OUVER Entertainment 0708970-2\nwww.ouver.com.br
EXTT0=
EXTT1=
EXTT2=
EXTT3=
EXTT4=
EXTT5=
EXTT6=
EXTT7=
EXTT8=
EXTT9=
EXTT10=
EXTT11=
EXTT12=
EXTT13=
PLAYORDER=
